<svg xmlns="http://www.w3.org/2000/svg" width="250" height="250" viewBox="0 0 250 250"><path fill="#021540" d="M181.694 46.417c-9.393-5.837-23.635-6.044-33.907-1.166v35.944c11.693-5.55 23.093-5.55 33.907 1.17V46.417m-33.907 92.93c11.693 5.552 23.093 5.552 33.907-1.17V99.605c-10.814-6.72-22.214-6.72-33.907-1.17v40.914zm0 65.17l13.453 6.43c5.847-3.508 14.606-7.6 20.454-9.35V156c-10.814 6.727-22.214 6.727-33.907 1.176v47.34zM115.65 54.6v142.024l11.106 1.758V42.037c-5.263.578-11.106 4.09-11.106 12.563zM58.956 6.964h112.22c27.468 0 46.175 18.707 46.175 44.422 0 24.544-7.022 121.567 2.33 161.896-25.707-1.753-51.428 9.94-68.97 32.15-18.113-9.938-29.8-11.108-50.256-11.108-16.366 0-39.75 5.26-57.864 12.272-6.9 2.672-4.676-.88-.587-6.716 10.52-15.032 31.562-33.61 53.77-42.383V46.707c-8.178 8.19-11.684 16.95-11.684 33.316v89.423c0 15.777-5.85 26.884-14.614 34.485-8.77 7.597-19.873 9.937-25.715 11.106-5.846 1.166-8.182 0-3.51-5.846 4.677-5.847 9.354-10.52 9.354-31.563v-42.662c-4.676 1.747-10.35 6.537-13.442 11.102-3.072 4.527-5.843 3.233-5.843-1.755 0-14.03 8.76-27.464 19.284-32.724v-10.524c-4.676 1.753-9.936 6.43-13.442 11.102-3.26 4.347-5.843 3.447-5.843-1.752 0-14.026 8.76-27.468 19.284-32.728 0-21.625 8.766-29.226 22.796-36.82C52.235 37.38 34.116 14 32.017 2.5c6.48 3.318 18.17 4.444 26.94 4.464z"/></svg>