<!DOCTYPE svg PUBLIC "-//W3C//DTD SVG 1.1//EN" "http://www.w3.org/Graphics/SVG/1.1/DTD/svg11.dtd" [
	<!ENTITY ns_flows "http://ns.adobe.com/Flows/1.0/">
]><svg xmlns="http://www.w3.org/2000/svg" width="489" height="372" viewBox="-0.99 -0.14 489 372"><path fill="#010101" d="M319.37 0c8.62 5.59 17.18 11.31 26.2 16.25 9.67 5.73 20.69 8.41 31.28 11.85 7.24 2.17 13.81 7.09 16.86 14.14 4.01 1.83 8.108 3.6 11.67 6.25 3.89 3.03 6.18 7.55 7.938 12.05 6.6 2.77 13.05 5.94 19.17 9.67 8.42 5.25 15.64 12.17 22.65 19.13-5.57 3.02-10.51 7.31-14.01 12.6-2.06 5.05-3.76 10.36-7.17 14.73 7.09-5.65 17.85-5.28 24.65.65 9.12-.82 18.3 2.83 24.63 9.38 4.39 4.64 5.76 11.83 3.53 17.79-1.61 3.44-.42 7.51-2.39 10.84-1.562 3.53-4.8 5.77-7.312 8.54-2.55 4.58-6.38 8.64-11.44 10.36-5.42 1.82-11.2.64-16.56-.7-7.32 1.31-14.94 1.2-21.9-1.67-2.01 3.03-4.08 6.01-6.23 8.94 5.012 4.11 10.71 7.5 17.04 9.1 6.99 1.95 14.9 3.48 19.24 9.96 13.17-2.26 26.17 7.41 29.6 19.93 1.102 4.06 1.012 8.49-.55 12.42-1.318 3.71-4.818 6.09-6.02 9.87-2.07 5.45-6.96 9.49-12.79 10.18-6.16 5.7-15.86 6.75-23.07 2.46-6.59-.77-13.728-.89-19.47-4.73-3.49-2.11-5.99-5.36-8.72-8.29-6.99-3.26-14.92-2.5-22.36-3.728-11.25-1.8-22.55-4.31-32.84-9.33-7.33 2.34-15.05 2.92-22.67 3.46-1.72-4.28-3.98-8.39-7.32-11.63-12.77 6.81-25.41 15.06-40.1 16.79-1.03 5.48-2.23 10.98-4.32 16.17-3 7.45-9.64 12.9-16.93 15.9 8.35 3.28 15.23 10.56 16.63 19.6 1.39 6.72-2.35 13.44-7.69 17.33-2.2 4.95-6.67 8.87-12.02 9.99-5.12 1.54-10.65-.57-15.62 1.61-7.81 2.83-16.12-.02-22.71-4.43-9.79.64-19.61 1.978-29.42 1.198-7.11-.63-13.15-5.56-15.85-12.06-4.02 2.95-8.37 5.43-12.92 7.45-7.38 3.63-14.67 7.52-21.43 12.23.38 1.45-.42 3.73 1.36 4.43 5.55 2.76 10.23 7.86 11.13 14.16.49 4.72.22 9.77-2.21 13.98-1.57 2.96-4.64 4.68-6.41 7.49-2.25 3.38-5.53 6.25-9.55 7.2-3.41 1.118-7.07 0-10.47 1.08-5.57 1.608-11.82 1.43-16.95-1.48-7.08-4.08-11.83-12.11-11.51-20.34.73-9.97 1.06-20 1.08-29.98-3.34-5.7-5.5-12.82-2.47-19.13 2.72-7.02 10.46-10.03 13.75-16.63 2.92-5.24 3.2-11.38 3.63-17.22.36-6.95 1.17-13.87 1.52-20.82-9.61-3.04-19.12-7.17-26.81-13.82-6.81-6.48-12.48-14.37-15.64-23.27-3.55-9.59-4.04-20.13-8.59-29.37-1.94-4.1-5.13-7.44-8.79-10.06-8.86 1.8-18.25-1.21-24.46-7.74-4.71-3.98-7.27-10.37-13.18-12.87-7.52-3.53-15.86-4.81-24.06-5.67 12.56-12.89 28.89-22.9 47.06-24.84 7.56-.97 15.56 1.1 21.33 6.16 4.31 3.56 7.1 8.58 8.84 13.83 15.99 7.18 28.08 21.81 32.9 38.57 2.01 7.06 3.34 14.7 8.21 20.49 4.71 5.89 11.96 9.02 19.15 10.63 7.6-7.04 14.53-15.67 24.69-19.06 4.6-1.73 9.5-2.67 13.99-4.71 3.93-2.77 7.42-6.11 11.18-9.1 1.87-1.45 3.5-3.21 4.56-5.34 3.88-6.95 7.79-13.98 13.38-19.73-3.49-7.3-5.63-15.3-5.63-23.43 1.84.61 3.69 1.2 5.55 1.75.33-12.57 8.86-22.58 17.45-30.85.17-7.51 2.28-14.92 6.15-21.37-2.41-4.2-4.64-8.59-5.48-13.41 7.4-.76 14.86-1.99 21.72-4.96 4.03-1.68 6.52-5.44 9.32-8.57 5.14-5.62 10.79-11.02 17.77-14.29 8.75-4.05 18.47-6.09 28.12-5.67-3.1-2.33-6.47-4.31-10.07-5.76 8.17-5 17.61-7.59 27.08-8.61.324-4.68.654-9.42 2.104-13.92z"/><path fill="#FFF" d="M324.07 10.2c8.5 4.99 16.15 11.53 25.29 15.44 8.11 3.36 16.47 6.05 24.81 8.8 6.39 1.7 12.43 6.18 13.99 12.89 5.51 2.59 12.01 4.23 15.69 9.49 2.67 2.93 2.3 8.16 6.4 9.78 6.8 3.03 13.608 6.13 19.79 10.33 5.17 3.85 10.01 8.14 14.608 12.67-3.32 2.98-7.16 5.53-9.75 9.22-2.6 6.52-4.93 13.7-10.61 18.28-1.88 1.65-4.6 2.45-5.77 4.81 5.28.13 10.35 1.53 15.27 3.37 3.34-2.05 6.22-5.16 10.29-5.74 4.39-1.02 8.69 1.34 11.53 4.57 8.37-.78 17.83.9 23.16 8.05 3.31 3.68 2.72 9.3-.13 13.07.02 2.77.65 5.85-.9 8.34-1.2 2.19-3.49 3.33-5.49 4.64-1.86 3.81-4.14 7.94-8.32 9.55-4.78 1.94-10.01.31-14.61-1.38-4.67.8-9.438 1.74-14.18 1.02-3.43-.71-6.41-2.64-9.31-4.5-5.12 6.03-9.15 12.89-14.29 18.91 5.89 5.19 12.19 10.19 19.67 12.85 4.21 1.67 8.61 2.76 12.99 3.85 4.41 1.16 7.5 4.82 9.37 8.8 5.67-1.19 12.2-1.92 17.15 1.8 4.61 3.44 9.54 7.78 10.36 13.82.87 4.67-1.59 9.18-5.44 11.73-.64 2.7-1.18 5.59-3.12 7.72-2.04 2.34-5.24 3.03-8.21 3.11-2.59 3.45-6.93 5.77-11.3 4.98-3.93-.38-6.92-3.93-11.04-3.12-8.38.58-17.01-3.47-20.84-11.14-7.68-3.05-15.93-4.42-24.17-4.51-12.28-1.41-24.65-4.49-35.47-10.6-5.98 2.438-12.22 4.34-18.69 4.83-2.33-5.57-6.52-10.17-11.6-13.38-7.9 4.328-15.8 8.63-23.8 12.75-7.22 3.68-15.36 4.84-23.32 5.67.68 6.04-1.19 11.96-3.13 17.6-1.08 2.74-2.04 5.64-3.97 7.91-2.24 2.27-4.99 3.93-7.73 5.49-6.52 3.68-14.24 4.52-20.64 8.43-3.28 2.04-6.26 4.49-9.17 7.01 3.55.65 7.41 2.41 10.92.67 3.11-1.26 6.15-2.98 9.58-3.16 9.17-1.15 17.69 6.38 19.74 14.96 1.12 5.05-2.47 9.39-6.63 11.66-1.15 2.72-2.4 5.74-5.2 7.16-4.56 2.38-9.84 1.1-14.71 1.04-3.79 1.49-7.87 3.43-12.02 2.21-4.38-.78-7.78-4.1-12.03-5.08-9.34.2-18.65 1.5-28 1.48-4.23-.12-8.35-2.28-10.65-5.87-3.16-4.272-1.51-10.08.83-14.33 2.17-4.11 6.17-7.05 8.02-11.3-1.07-2.29-3.84-2.87-5.81-4.182-5.41 9.45-8.74 21.14-18.53 27.16-10.97 6.43-23.32 10.71-32.95 19.3-.02 4.09-.06 8.19.29 12.28 4.94.79 10.03 3.43 11.56 8.55 1.21 5.54.55 13.03-5.39 15.58-1.29 3-3.08 6.26-6.42 7.3-3.35 1.33-7.01-.56-10.32.87-3.75 1.22-7.94 1.61-11.67.12-5.41-2.29-9.35-8.01-9.05-13.95-.09-10.37.72-20.72.93-31.08-.67-5.15-5.34-9.52-3.96-15.01 2.64-8.06 12.32-10.76 15.15-18.68 5.65-14.53 3.09-30.39 5.62-45.48-8.58-2.2-17.05-5.24-24.61-9.93-7.6-4.64-13.09-12.06-16.98-19.93-5.44-11.34-5.53-24.45-11.3-35.65-2.85-5.6-7.6-10.03-13.07-13.03-6.82 2.26-14.79 1-20.18-3.88-4.63-3.71-7.45-9.15-11.98-12.94-5.6-3.52-12.39-4.28-18.8-5.25 12.73-8.6 27.39-17.06 43.37-14.87 8.87 1.08 14.69 9.51 15.88 17.85 6.91 3.3 13.63 7.24 19.08 12.67 6.97 7.21 11.62 16.45 13.97 26.15 2.33 9.05 6.18 18.23 13.31 24.55 6.5 5.02 14.47 7.93 22.56 9.09 5.06-5.45 10.38-10.67 15.98-15.56 6.83-5.85 16.31-6.14 24.12-9.94 4.58-3.75 8.96-7.75 13.58-11.45 2.94-2.21 4.25-5.77 6.18-8.78 3.93-7.17 8.7-13.82 13.8-20.21-3.15-4.11-5.06-9.05-5.36-14.23 1.69.15 3.38.3 5.08.44-1.72-4.62-2.01-9.88.06-14.44 3.55-8.12 9.5-14.95 16.04-20.81-.16-8.6 2.11-17.31 7.36-24.22-2.05-2.83-3.78-5.9-4.86-9.24 6.72-1.08 13.79-1.87 19.62-5.69 4.05-2.17 6.33-6.28 9.49-9.42 5.398-5.55 11.688-10.6 19.17-12.95 7.89-2.48 16.24-3.24 24.47-2.73 2.87-1.87 5.87-3.54 8.91-5.13-2.8-2.85-5.87-5.45-9.33-7.46 6.24-1.59 12.65-2.59 19.1-2.28.112-3.398.942-6.768.67-10.158z"/><path fill="#006DB0" d="M329.79 21.3c5.01 3.64 10.03 7.35 15.65 10.03 9.76 5.1 20.83 6.78 30.83 11.27 3.73 1.44 5.47 5.45 5.25 9.25 4.87 2.28 10.04 4.01 14.61 6.87 4.56 3.17 4.188 10.01 8.91 12.98 5.17 2.58 10.63 4.6 15.67 7.47 5.41 2.85 10.22 6.7 14.81 10.71-3.18 2.15-6.95 4.27-7.78 8.38-2 7.12-6.22 14.14-13.45 16.89 1.51-3.49 1.95-7.31 1.05-11.03-7.36-.18-14.83 1.08-21.37 4.58.02 3.99-.36 8.52 2.35 11.81 1.54 1.98 4.47 2.45 6.67 1.35 3.47-1.57 5.77-4.75 7.84-7.8.08 3.04-.88 6.56 1.27 9.14.87 2.35.15 4.96.13 7.41 6.61-3.22 14.022-1.21 20.32 1.71 6.04 1.12 9.29-7.7 15.51-5.76 1.642 1 2.32 3.01 3.892 4.07 5.42 1.24 11.37-1.03 16.41 1.88 2.7 1.42 6.6 3.64 5.76 7.26-1.02 1.23-2.27 2.23-3.44 3.29.67 2.21 1.73 4.46 1.27 6.83-1.02 1.86-3.35 2.16-5.1 2.99-1.22 2.98-2.23 6.34-5 8.27-4.18.91-8.32-.7-12.25-1.93-6.26 1.61-14.03 3.26-19.29-1.63-2.97-3.39-8.23-1.13-10.69 1.79-5.65 6.78-9.78 14.78-16.05 21.06-9.48 9.55-19.69 18.41-30.67 26.2-7.78 5.79-16.72 9.99-26.26 11.83-3.66-5.7-8.67-10.94-15.24-13.15-17.56-6.08-36.53-5.41-54.68-2.85 15.33.29 31.54 0 45.54 7.2-6.74 3.83-13.55 7.58-20.63 10.73-8.19 3.59-17.27 3.69-26.02 4.46 1.06 4.49 2.64 9.17 1.24 13.78-1.36 5.1-2.42 10.86-6.43 14.62-8.47 6.16-19.65 6.75-28.17 12.84-5.89 4.02-11.022 9.33-13.98 15.88 5.87 1.25 11.73 2.58 17.65 3.55 6.51 1.46 11.57-5.36 18.06-3.7 4.5 1.31 8.34 5.38 9.02 10.07-.39 3.08-3.88 3.65-6.24 4.62-.35 1.99-.8 3.96-1.33 5.9-4.52 1.58-9.29.75-13.84-.19-2.23 1.66-4.74 3.26-7.64 3.16-5.27.08-8.68-5.24-13.86-5.5-9.69-.3-19.32 1.92-29.01 1.3-2.4-.14-5.25-1.58-5.37-4.27-.21-4.61 3.56-7.87 6.05-11.29 2.44-3.25 6.19-6.95 4.66-11.4-1.87-4.31-6.58-6.06-10.48-8.04 7.24-8.33 15.72-15.64 25.35-21.08 12.39-7.41 25.18-14.38 38.94-18.91-21.08 3.58-41.01 13.17-57.5 26.72 4-7.81 10.83-13.56 16.97-19.62-13.16 6.62-23.44 18.12-29.87 31.25-3.81 8.05-7.87 16-12.39 23.67-2.57 4.59-7.64 6.73-12.12 8.98-8.46 3.88-16.6 8.47-24.26 13.76-2.57 1.94-5.87 4.08-5.91 7.7-.43 6.25.23 12.55 1.03 18.75 3.3.5 6.8.71 9.75 2.42 2.05 2.12 2.23 5.55 1.24 8.21-1.08 1.44-3.16 1.24-4.72 1.78-.46 2.17-.32 4.91-2.42 6.27-2.53.73-5.11-.12-7.6-.59-1.95 1.24-4.03 2.62-6.46 2.41-4.45.39-8.44-3.72-8.12-8.13.14-11 1.27-21.99.83-32.99-.08-4.3-4.33-7.46-3.83-11.8 2.23-3.75 6.12-6.05 9.09-9.15 3.91-3.61 5.91-8.72 7.42-13.7 4.51-15.51 1.24-32.1 5.66-47.62-8.5-1.69-16.86-4.23-24.67-7.99-7.84-3.71-14.14-10.22-18.35-17.72-3.77-6.75-4.28-14.6-6.47-21.89-1.76-6.09-3.97-12.08-6.84-17.73-3.66-7.37-11-11.78-17.83-15.81-3.58 1.82-7.83 2.8-11.69 1.24-5.55-2.29-10.39-6.24-13.62-11.32-2.14-3.76-6.44-5.09-10.32-6.26 5.7-1.96 11.85-3.28 17.84-1.98 3.32.66 6.24 2.44 9.26 3.86-3.15-5.49-9.71-6.18-15.32-7.18 6.37-2.5 14.18-2.86 19.95 1.28 4.01 3.26 5.18 8.59 6.45 13.35 6.55 3.64 13.31 7.12 19.01 12.04 7.31 6.96 11.56 16.56 13.75 26.29 2.53 10.55 8.05 20.602 16.72 27.312 8.02 6.13 18.21 8.72 28.14 9.44 4.8-6.03 10.49-11.28 16.3-16.33 6.96-6.43 17.47-5.73 25.13-10.85 5.51-4.83 11.54-9.12 16.62-14.41 4.74-7.01 8.41-14.73 13.48-21.55 3.59-4.8 7.57-9.3 11.6-13.74-3.78-.36-7.59-1.25-10.52-3.81 3.91-2.51 9.33-4.83 10.18-9.93.11-4.37-5.35-2.82-7.96-1.99 2.98-12.58 12.78-21.85 22.47-29.67 3.72-2.77 8.31-6.15 8.08-11.33-2.33-4.68-8.18-1.67-10.88 1.05 2.15-5.47 4.89-10.86 9.39-14.79-2.37-1.07-4.44-2.65-5.98-4.75 4.33-.36 8.87-.64 12.7-2.93 6.89-3.91 13.67-8.06 21.09-10.92-3.228-.33-6.478-.09-9.63.74 6.41-6.62 14.46-12.07 23.71-13.52 11.07-2.22 22.37 1.27 33.4-.86-2.76-2.17-6.12-3.18-9.54-3.64 4.06-2.03 8.23-3.89 12.69-4.86-3-2.62-6.27-4.9-9.77-6.79 5.54.41 11.13.71 16.49 2.28-1.232-2.362-1.973-4.922-2.292-7.552z"/><path fill="#FFF" d="M378.25 73c4.06-.55 8.38-2.63 12.35-.68 2.08.81 4.18 1.59 6.3 2.28-1.29 1.91-2.47 3.89-3.36 6.01-4.26-4-9.44-6.86-15.29-7.61zM278.97 103.6c7.34-5.34 15.88-9.31 25.05-9.85 15.92-.94 31.86 7.11 41.08 20.04-11.32-8.28-24.76-15-39.1-14.7-9.21-.17-18.25 1.95-27.03 4.51zM267.88 128.72c11.02-4.76 20.85-12.67 32.99-14.47 8.96-1.58 18.08-.15 26.77 2.2-11.1-.75-22.45.6-32.53 5.53-9.34 4.44-17.39 11.4-27.34 14.6-10.3 3.9-21.84 3.81-32.21.19 11.18-.52 22.26-3.1 32.32-8.05zM301.55 135.8c13.47-6.16 29.13-8.46 43.46-3.98 5.28 1.75 10.96 4.15 13.89 9.18 1.59 2.49 1.81 5.49 2.05 8.35 4.24-1.09 8.4-2.49 12.34-4.41.64-3.53 1.37-7.19 3.57-10.12 1.78-2.6 5.05-4.32 8.23-3.77 5.72.7 11.03 3.15 16.19 5.6-14.07 10.41-30.53 17.08-47.2 22.1 1.85-4.86 2.17-10.61-.97-15.03-4.65-6.98-13.48-9.12-21.28-10.28-10.15-1.56-20.38.09-30.28 2.36z"/><path fill="#006DB0" d="M367.98 216.99c14.37-8.15 27.3-18.57 38.75-30.44 4.55 4.05 9.25 8.04 14.6 11.01 6.48 3.42 13.51 5.68 20.61 7.42 4.94 1.08 5.18 7.97 10.17 9.04 4.53.7 9.3-2.23 13.64.06 3.1 1.76 5.66 4.44 7.5 7.48.76 1.56 1.81 3.55.75 5.23-.93 2.01-3.38 2.29-5.18 3.13-.21 2.71.31 5.9-1.7 8.08-2.15 1.3-4.74.16-7.03-.08-.93 2.09-1.6 5.02-4.22 5.55-3.11.78-5.79-1.43-8.18-3.05-5.34.28-11.21.7-15.92-2.32-2.73-1.61-4.36-4.42-5.63-7.23-6.99-2.97-14.37-5.1-21.98-5.57-12.36-1.05-24.86-3.02-36.18-8.31z"/></svg>