<svg xmlns="http://www.w3.org/2000/svg" width="85" height="85" viewBox="0 0 85 85"><linearGradient id="a" gradientUnits="userSpaceOnUse" x1="41.946" y1=".642" x2="41.946" y2="84.54"><stop offset="0" stop-color="#D72C20"/><stop offset=".371" stop-color="#C92A20"/><stop offset="1" stop-color="#B52720"/></linearGradient><path d="M41.947.642C18.78.642 0 19.422 0 42.59c0 23.164 18.78 41.95 41.947 41.95 23.166 0 41.945-18.786 41.945-41.95C83.892 19.42 65.112.64 41.947.64z" fill="url(#a)"/><path d="M31.05 44.697h-1.688v11.91h-.008c.57.67.914 1.534.914 2.48 0 1.176-.532 2.23-1.37 2.933l-1.04-1.04c.573-.432.945-1.118.945-1.894 0-1.307-1.06-2.366-2.367-2.366s-2.366 1.06-2.366 2.366c0 .77.365 1.45.933 1.884l-1.042 1.04c-.828-.704-1.355-1.753-1.355-2.924 0-.945.346-1.81.916-2.48v-18.57c.038-.714.614-1.287 1.326-1.287l34.046.003c.71 0 1.287.573 1.326 1.29V56.61c.568.67.914 1.534.914 2.48 0 1.17-.527 2.22-1.357 2.924l-1.04-1.04c.565-.434.933-1.116.933-1.884 0-1.307-1.06-2.367-2.367-2.367s-2.366 1.06-2.366 2.367c0 .773.373 1.46.945 1.893l-1.042 1.042c-.836-.705-1.37-1.76-1.37-2.935 0-.944.347-1.81.915-2.48h-.008V44.7h-1.69v25.142l1.132.646v2.043H42.424V70.49l1.133-.646h.002v-7.627h-3.385v7.627l1.13.646v2.043l-11.368.02v-2.062l1.112-.646V44.697zM41.87 17.46c2.365 0 4.505.842 5.826 2.11l1.043-1.487c-1.65-1.477-4.114-2.414-6.87-2.414-2.762 0-5.233.94-6.88 2.425l1.04 1.488c1.32-1.275 3.468-2.123 5.84-2.123" fill="#FFF"/><path d="M41.982 13.662c2.582 0 4.992.746 6.783 2.1.363.276.69.57.98.877l1.045-1.493c-2.033-1.993-5.223-3.277-8.81-3.277-3.672 0-6.93 1.347-8.954 3.422l1.05 1.5c.322-.363.697-.708 1.12-1.03 1.794-1.354 4.203-2.1 6.786-2.1" fill="#FFF" opacity=".6"/><path d="M41.87 10.018c4.1 0 7.724 1.494 9.878 3.765l1.037-1.48c-2.512-2.478-6.467-4.077-10.916-4.077-4.457 0-8.417 1.604-10.928 4.09l1.037 1.48c2.15-2.278 5.782-3.778 9.89-3.778" fill="#FFF" opacity=".3"/><g fill="#FFF"><path d="M38.418 27.577c0 .622-.505 1.128-1.13 1.128-.62 0-1.127-.506-1.127-1.128 0-.627.507-1.13 1.128-1.13.625 0 1.13.502 1.13 1.13z"/><path d="M50.367 21.494h-17.33c-.71 0-1.292.577-1.292 1.29V34.09c0 .708.582 1.29 1.292 1.29h17.33c.713 0 1.29-.58 1.29-1.29V22.785c0-.714-.577-1.29-1.29-1.29zm-13.08 8.288c-1.216 0-2.204-.99-2.204-2.206 0-1.22.988-2.208 2.205-2.208 1.218 0 2.206.988 2.206 2.208 0 1.216-.988 2.206-2.206 2.206zm8.86 0c-1.224 0-2.212-.99-2.212-2.206 0-1.22.988-2.208 2.21-2.208 1.218 0 2.206.988 2.206 2.208.002 1.216-.987 2.206-2.204 2.206z"/><path d="M47.28 27.577c0 .622-.515 1.128-1.134 1.128-.625 0-1.13-.506-1.13-1.128 0-.627.505-1.13 1.13-1.13.62 0 1.133.502 1.133 1.13z"/></g></svg>