<svg xmlns="http://www.w3.org/2000/svg" width="256" height="256"><g stroke="#000" stroke-width="5"><path d="M128.026 8.95l-120 121.43 119.286 119.284 120-120.714-119.286-120z" fill="#19953f"/><path d="M26.243 20.56l-5 5v19.286l5.446 5.268 7.232.18.178 168.124 7.143 7.143h22.143l177.143-180V26.99l-5-5-80-.715-5 7.143v15.714l5 6.43h6.427l-62.143 60 .625-59.734h7.142l5.804-5.982V29.132l-6.43-7.143-80.713-1.43z" fill="#d0d0cf"/><path d="M136.908 136.888l4.286-3.572 12.143.357 3.928 3.93-4.285 12.142-3.572 3.214-12.648-.15-3.423-4.137 3.57-11.785zM121.908 159.745l28.572.357-15 45h5.357l-3.214 8.928-26.786-.357 14.643-43.214-7.143.356 3.57-11.07zM157.265 160.102l-3.72 9.686h6.83l-15.252 44.242h23.57l3.407-8.72-6.115-.4 8.423-26.237 15-.357-11.07 35 23.152.357 2.916-8.257-5.564-.164 9.138-26.58h12.857l-11.072 35 24.33.254 3.005-8.273-5.817-.194 11.697-37.144-4.643-7.5h-14.643l-5.714 5.714h-5.715l-6.07-6.07h-12.5l-5.358 5.356h-6.072l-6.07-5.714h-18.93z" fill="#d0d0cf"/></g></svg>