<svg xmlns="http://www.w3.org/2000/svg" xmlns:xlink="http://www.w3.org/1999/xlink" width="1104.571" height="440.299"><defs><linearGradient id="b"><stop offset="0" stop-color="#912420"/><stop offset="1" stop-color="#cf332d"/></linearGradient><linearGradient id="a"><stop offset="0" stop-color="#fff"/><stop offset="1" stop-color="#b3b3b3"/></linearGradient><linearGradient x1="543.321" y1="441.519" x2="543.321" y2="817.556" id="d" xlink:href="#a" gradientUnits="userSpaceOnUse"/><linearGradient xlink:href="#b" id="c" x1="532.821" y1="694.122" x2="532.821" y2="263.728" gradientUnits="userSpaceOnUse"/></defs><path d="M484.234 30.257v360h580v-360zM198.348 359.995c-18.133-2.202-34.79-12.87-42.814-27.425-8.182-14.837-8.928-22.608-8.447-87.935.373-50.6.504-53.772 2.51-61.02 4.78-17.27 14.037-29.052 28.408-36.153 19.723-9.746 40.98-8.474 59.59 3.565 11.847 7.664 19.047 18.747 22.89 35.233 1.7 7.302 1.863 12.886 1.863 64 0 62.136-.302 65.726-6.663 79.19-6.13 12.972-19.988 24.402-34.45 28.412-6.363 1.765-17.428 2.796-22.887 2.133zm15.89-40.583c6.946-5.298 6.995-5.734 7.38-65.598.3-46.494.132-54.395-1.28-60.74-1.9-8.547-5.237-12.63-11.753-14.385-8.438-2.274-16.167 2.555-18.844 11.77-2.06 7.1-2.04 112.57.027 119.683 1.545 5.325 6.568 11.16 10.29 11.955 4.838 1.03 10.783-.096 14.182-2.688zm102.11 40.626c-10.053-1.338-15.92-5.218-19.947-13.188-5.054-10.007-5.05-9.948-5.05-109.59v-93h40.554l.43 85.714c.464 93.12.325 90.947 5.9 92.346 5.117 1.285 10.776-1.458 17.838-8.648l6.766-6.887.256-81.263.256-81.262 20.25-.27 20.25-.272V356.6l-2.75.566c-3.318.68-34.026.637-36.5-.053-1.512-.422-1.75-1.8-1.75-10.14v-9.65l-5.75 5.598c-13.23 12.884-27.51 18.88-40.75 17.12zM53.224 356.56c-.85-1.377-.723-83.647.148-95.3 1.117-14.942.324-26.69-10.402-56.733-3.482-9.753-10.194-29.512-14.39-42.86C-1.733 65.25.306 71.77 3.202 71.745c19.967-.17 42.912-.052 43.18.217.192.193 6.684 23.74 14.426 52.325 7.742 28.586 14.204 52.382 14.36 52.88.156.497 4.7-16.153 10.1-37 11.317-43.703 17.667-67.832 17.91-68.054.507-.462 6.136-.57 24.53-.465l20.36.115-.45 3.25c-.366 2.657-14.258 49.314-28.805 96.75-1.603 5.225-5.654 18.725-9.004 30-3.35 11.275-7.41 24.668-9.027 29.762l-2.936 9.262v57.92c0 54.314-.11 57.95-1.75 58.4-3.65.998-42.223.51-42.874-.544z" fill="#fff"/><path d="M198.815 357.048c-18.133-2.202-34.79-12.87-42.814-27.424-8.18-14.837-8.926-22.608-8.445-87.935.373-50.603.504-53.775 2.51-61.02 4.78-17.274 14.037-29.055 28.408-36.155 19.724-9.746 40.98-8.474 59.59 3.565 11.847 7.665 19.047 18.748 22.89 35.234 1.7 7.302 1.863 12.886 1.863 64 0 62.135-.302 65.726-6.663 79.19-6.13 12.972-19.987 24.402-34.45 28.412-6.363 1.764-17.428 2.795-22.887 2.132zm15.89-40.583c6.946-5.298 6.995-5.733 7.38-65.598.3-46.494.133-54.395-1.28-60.74-1.9-8.547-5.236-12.63-11.753-14.384-8.437-2.272-16.167 2.557-18.843 11.773-2.064 7.1-2.043 112.568.022 119.682 1.545 5.325 6.57 11.16 10.29 11.955 4.838 1.032 10.783-.095 14.182-2.688zm102.11 40.627c-10.053-1.34-15.92-5.218-19.947-13.188-5.055-10.007-5.053-9.95-5.053-109.59v-93h40.555l.43 85.714c.464 93.12.325 90.947 5.9 92.346 5.117 1.284 10.776-1.46 17.838-8.648l6.766-6.887.255-81.265.254-81.262 20.25-.27 20.25-.272v212.885l-2.75.565c-3.317.68-34.026.637-36.5-.053-1.512-.422-1.75-1.8-1.75-10.14v-9.65l-5.75 5.598c-13.23 12.882-27.51 18.88-40.75 17.117zm-263.123-3.48c-.85-1.375-.723-83.646.147-95.298 1.115-14.943-1.395-26.69-12.12-56.733-3.483-9.75-9.765-28.65-13.96-42C-2.556 63.16-.946 68.824 1.95 68.8c19.967-.17 44.63-.052 44.897.216.192.192 6.683 23.738 14.425 52.325 7.743 28.586 14.205 52.38 14.36 52.88.156.496 4.7-16.154 10.1-37 11.317-43.703 17.668-67.83 17.91-68.054.507-.464 6.136-.57 24.53-.467l20.36.115-.45 3.25c-.366 2.657-14.257 49.314-28.805 96.75-1.603 5.225-5.654 18.725-9.003 30-3.35 11.275-7.41 24.667-9.026 29.762l-2.935 9.262v57.92c0 54.313-.11 57.95-1.75 58.4-3.65.997-42.222.51-42.873-.546z" stroke="#2f2f2f" fill="#2f2f2f"/><path d="M451.832 704.274c-23.375-.415-51.05-1.062-61.5-1.438-70.166-2.524-118.34-5.222-127.965-7.167-13.72-2.774-29.05-12.058-37.95-22.98-14.26-17.51-21.856-38.75-25.545-71.447-8.576-76.016-8.386-164.644.51-238 3.898-32.127 13.592-55.353 29.864-71.547 9.287-9.242 18.21-14.416 30.11-17.46 25.747-6.585 227.35-11.83 349.976-9.104 70.83 1.575 147.37 4.838 167.712 7.15 26.308 2.993 44.78 16.618 57.564 42.46 9.652 19.513 12.757 34.7 16.66 81.5 3.094 37.08 3.83 60.162 3.278 102.942-.66 51.2-3.915 96.297-8.78 121.62-5.142 26.763-17.314 49.585-33.03 61.933-12.145 9.542-25.076 13.798-45.404 14.946-6.05.342-13.7.83-17 1.085-11.738.906-74.547 3.454-109 4.42-51.208 1.436-140.784 1.948-189.5 1.084z" fill="url(#c)" transform="translate(249.856 -264.397)"/><path d="M503.557 76.637v37.968l22.25.282 22.25.28.25 120.5c.136 66.276.455 121.052.72 121.75.37.983 5.004 1.21 20.28 1l19.75-.25.5-121.5.5-121.5 22.78-.28 22.783-.282-.282-18.718-.28-18.72-65.75-.28-65.75-.25zm286 .03v282h36v-9.5c0-6.296.39-9.5 1.125-9.5.61 0 4.655 3.32 9 7.407 14 13.17 26.13 16.807 41.25 12.344 5.794-1.71 12.862-8.625 16.032-15.688 6.086-13.56 6.093-13.88 6.093-90.062 0-62.542-.15-70.25-1.718-77-5.03-21.638-16-31.11-34.41-29.72-10.322.782-18.455 4.892-28.186 14.282-4.228 4.08-8.025 7.438-8.438 7.438-.412 0-.75-20.7-.75-46v-46h-36zm198.125 70.063c-5.86.12-11.724 1.17-17.343 3.22-19.393 7.07-30.85 19.812-35.47 39.5-1.634 6.957-1.814 13.215-1.814 64.218 0 62.553.23 65.107 6.625 77.906 11.396 22.804 39.94 34.695 65.876 27.438 19.262-5.39 32.588-18.533 37.594-37.094.856-3.172 1.805-12.163 2.126-20l.594-14.25h-37.063l-.468 12.75c-.523 14.52-2.01 19.495-7.284 24.125-5.627 4.94-15.962 5.282-22.687.75-7.997-5.388-9.996-14.5-9.595-44.125l.28-21 38.376-.28 38.376-.25-.53-31.25c-.59-34.846-1.316-40.135-7.188-52.5-8.706-18.33-29.48-29.586-50.408-29.158zm-343.125 2.938v90.53c0 98.588.105 100.713 5.625 110.22 6.03 10.385 20.19 13.64 35.094 8.062 7.198-2.693 15.63-8.518 22.75-15.75 3.283-3.334 6.545-6.062 7.25-6.062.964 0 1.28 2.723 1.28 11v11h36v-209h-36v161.22l-7.75 7.717c-6.15 6.116-8.738 7.96-12.53 9-6.445 1.77-10.498.556-13.156-3.968-2.006-3.414-2.046-4.95-2.313-88.72l-.28-85.25h-35.97zm344.594 29.625c8.036 0 13.1 3.093 16.533 10.062 2.175 4.418 2.415 6.28 2.72 22.563l.312 17.75H989.12c-16.897 0-19.7-.242-20.22-1.594-.927-2.417.367-30.452 1.595-34.53 2.885-9.586 9.004-14.25 18.656-14.25zm-144.123 2.344c5.65-.203 10.51 2.39 13.125 7.656 1.82 3.666 1.943 6.958 2.157 62.875.204 53.647.07 59.443-1.5 63.97-1.206 3.474-2.753 5.662-5.126 7.25-5.996 4.01-14.702 2.73-22.625-3.314l-3.5-2.656v-127.53l3.5-2.658c4.696-3.582 9.574-5.436 13.97-5.593z" opacity=".753"/><path d="M253.7 336.177v37.968l22.25.282 22.25.28.25 120.5c.137 66.276.456 121.052.72 121.75.37.983 5.005 1.21 20.28 1l19.75-.25.5-121.5.5-121.5 22.782-.28 22.782-.282-.282-18.718-.28-18.72-65.75-.28-65.75-.25zm286 .03v282h36v-9.5c0-6.296.39-9.5 1.126-9.5.61 0 4.655 3.32 9 7.407 14 13.17 26.13 16.807 41.25 12.344 5.794-1.71 12.862-8.625 16.032-15.688 6.086-13.56 6.093-13.88 6.093-90.062 0-62.542-.15-70.25-1.716-77-5.028-21.638-15.998-31.11-34.407-29.72-10.323.782-18.456 4.892-28.187 14.282-4.23 4.08-8.026 7.438-8.44 7.438-.41 0-.75-20.7-.75-46v-46h-36zm198.126 70.063c-5.86.12-11.724 1.17-17.343 3.22-19.39 7.07-30.85 19.812-35.47 39.5-1.632 6.957-1.812 13.215-1.812 64.218 0 62.553.23 65.107 6.627 77.906 11.395 22.804 39.94 34.695 65.875 27.438 19.263-5.39 32.59-18.533 37.595-37.094.855-3.172 1.804-12.163 2.125-20l.594-14.25H758.95l-.467 12.75c-.52 14.52-2.008 19.495-7.282 24.125-5.625 4.94-15.96 5.282-22.685.75-7.996-5.388-9.995-14.5-9.594-44.125l.28-21 38.377-.28 38.375-.25-.53-31.25c-.588-34.846-1.315-40.135-7.187-52.5-8.705-18.33-29.48-29.586-50.407-29.158zM394.7 409.208v90.53c0 98.588.106 100.713 5.626 110.22 6.03 10.385 20.19 13.64 35.094 8.062 7.198-2.693 15.63-8.518 22.75-15.75 3.283-3.334 6.545-6.062 7.25-6.062.964 0 1.28 2.723 1.28 11v11h36v-209h-36v161.22l-7.75 7.717c-6.15 6.116-8.738 7.96-12.53 9-6.445 1.77-10.498.556-13.156-3.968-2.006-3.414-2.046-4.95-2.313-88.72l-.28-85.25H394.7zm344.595 29.625c8.034 0 13.1 3.093 16.53 10.062 2.176 4.418 2.416 6.28 2.72 22.563l.313 17.75h-19.594c-16.897 0-19.7-.242-20.22-1.594-.927-2.417.367-30.452 1.595-34.53 2.883-9.586 9.002-14.25 18.654-14.25zm-144.125 2.344c5.65-.203 10.51 2.39 13.125 7.656 1.82 3.666 1.942 6.958 2.156 62.875.207 53.647.07 59.443-1.5 63.97-1.203 3.474-2.75 5.662-5.123 7.25-5.996 4.01-14.702 2.73-22.625-3.314l-3.5-2.656v-127.53l3.5-2.658c4.698-3.582 9.576-5.436 13.97-5.593z" fill="url(#d)" stroke="#fff" transform="translate(249.856 -264.397)"/></svg>